<svg class="Hero_hero-content-start-button-icon__s00Zw" fill="none" height="96" viewBox="0 0 96 96" width="96" xmlns="http://www.w3.org/2000/svg"><path clip-rule="evenodd" d="m47.9821 53.409c13.9279 0 26.0786 7.4801 32.5861 18.591h-65.1709c6.5076-11.1109 18.6582-18.591 32.5848-18.591zm37.4307-17.8279c2.4143-2.3854 6.3635-2.3854 8.7765 0 2.4143 2.3842 2.4143 6.2862 0 8.6716l-9.3539 9.2421c-2.413 2.3842-6.3623 2.3842-8.7765 0l-.2127-.2209c-2.1981-2.3995-2.1272-6.1387.2127-8.4506zm-83.37943-.2102c2.42856-2.173 6.21297-2.1029 8.55283.2102l9.3552 9.2422c2.413 2.3841 2.413 6.2862 0 8.6715-2.4142 2.3842-6.3635 2.3842-8.7765 0l-9.35515-9.2421c-2.413-2.3854-2.413-6.2874 0-8.6716zm45.87053-16.3709.2682.0057c3.2908.14 5.9376 2.8427 5.9376 6.1271v13.0693c0 3.3732-2.7918 6.1328-6.2058 6.1328-3.4127 0-6.2057-2.7596-6.2057-6.1328v-13.0693c0-3.3732 2.793-6.1328 6.2057-6.1328z" fill="#ffffff" fill-rule="evenodd"></path></svg>
