<?xml version="1.0" encoding="utf-8"?>
<!-- Generator: Adobe Illustrator 26.2.1, SVG Export Plug-In . SVG Version: 6.00 Build 0)  -->
<svg version="1.1" id="Layer_1" xmlns="http://www.w3.org/2000/svg" xmlns:xlink="http://www.w3.org/1999/xlink" x="0px" y="0px"
	 viewBox="0 0 646.4 478" style="enable-background:new 0 0 646.4 478;" xml:space="preserve">
<style type="text/css">
	.st0{fill:#2F2E41;}
	.st1{fill:#FFB6B6;}
	.st2{fill:#F2F2F2;}
	.st3{fill:#CCCCCC;}
	.st4{fill:none;}
	.st5{fill:#FED701;}
	.st6{fill:#015ABB;}
	.st7{fill:#F3AD55;}
	.st8{fill:#FBDCA3;}
	.st9{opacity:0.1;enable-background:new    ;}
	.st10{fill:#383F4D;}
</style>
<path class="st0" d="M125.5,44.7c-3.5-12.9,24.9-23.9,32.4-13.5c1-1.5,4.9-2.4,6.6-1.9c1.7,0.6,3.3,1.5,4.7,2.7c2,1.5,4,3.1,5.3,5.3
	c1.2,2.2,1.4,5.2-0.2,7.1c-1.3,1.5-5.2,2.5-7.1,2.9c-1.4,0.3-2.5,0.5-3.5,0.7c-0.9-1.3-1.3-2.9-1.2-4.5c-1.4,0.9-2.2,2.4-2.4,4
	c0,0.3,11.1,41.3,11.1,41.3c-1.3,0.8-2.7,1.4-4.2,1.9c-2.9-4.4-5.1-9.2-6.6-14.3c-0.3,3.4-0.3,6.8,0.1,10.2c0.2,1.9,0.5,3.8,1,5.6
	c-13.2,2.9-33.1,1.9-41.8-10.2l0-0.2c0-1.1-1-2.1-2.1-2c-0.8,0-1.6,0.5-1.9,1.3c-0.2,0.5-0.4,1-0.6,1.4
	C112.6,73.4,115.8,62.9,125.5,44.7z"/>
<polygon class="st1" points="187.9,456.3 197.7,456.2 202.1,417.3 187.5,417.4 "/>
<path class="st0" d="M217.5,468.4l-15.7-10.7l-0.1-7.1l-3.4,0.2l-10.5,0.7l-2.6,0.2l-1.9,24.9l7.4-0.1l1.3-7l3.4,7l19.6-0.2
	c2.4,0,4.4-2,4.4-4.4C219.4,470.5,218.7,469.2,217.5,468.4L217.5,468.4z"/>
<polygon class="st1" points="89.6,452.4 99.3,453.9 109.8,416.2 95.4,414 "/>
<path class="st0" d="M116.9,469.1l-13.9-13l1.1-7l-3.4-0.3l-10.5-1l-2.6-0.2l-5.8,24.3l7.3,1.1l2.4-6.7l2.3,7.4l19.4,2.9
	c2.4,0.4,4.7-1.3,5-3.7C118.5,471.5,118,470,116.9,469.1L116.9,469.1z"/>
<path class="st0" d="M183.3,184.4l28,50.1c0,0-1.2,103,2.5,106.8s7.1,7.2,3.7,7.2s-7.4,8.2-7.4,8.2l-7,77.4h-17.5
	c0,0-12.3-45.6-9.7-71.6l-20.8-95.1c0,0-14.9,89.9-17.6,92.6s-4.3,2.7-1.5,5.4s0,8.8,0,8.8l-29.5,61.2l-16-2c0,0,2.8-50,12.4-71.4
	V260.4c-0.7,8.7,33.3-79.3,12.5-72.7C122,185.7,183.3,184.4,183.3,184.4z"/>
<path class="st1" d="M106,270.8c2.4-2.8,2.1-7-0.7-9.5c-0.3-0.2-0.6-0.4-0.9-0.6l4.8-23.3l-11-6.6l-3.1,32.6
	c-1.4,2.8-0.7,6.1,1.6,8.2c2.7,2.4,6.8,2.1,9.2-0.7l0,0C105.9,270.9,105.9,270.9,106,270.8z"/>
<path class="st1" d="M276.9,219.8c-3.7-0.5-6.2-3.9-5.8-7.5c0-0.4,0.1-0.7,0.2-1.1L252.2,197l3.8-12.2l24.1,22.3
	c2.9,1.1,4.6,4,4.3,7.1c-0.4,3.6-3.7,6.1-7.3,5.7C277,219.8,277,219.8,276.9,219.8z"/>
<circle class="st1" cx="147.6" cy="59.3" r="23.2"/>
<path class="st0" d="M121.5,34.4"/>
<polygon class="st1" points="483.5,453.3 475.4,458.5 451.2,429.8 463.2,422 "/>
<path class="st0" d="M489.3,461.6l-25,16.2l-0.2-0.3c-3.5-5.4-2-12.5,3.4-16l0,0l2.3-6.4l10.8-2.1l2.2-1.4L489.3,461.6z"/>
<polygon class="st1" points="344.4,467.1 334.7,467.1 330.1,429.8 344.4,429.8 "/>
<path class="st0" d="M344.8,477.2l-29.8,0v-0.4c0-6.4,5.2-11.6,11.6-11.6h0l5.4-4.1l10.1,4.1l2.6,0L344.8,477.2z"/>
<path class="st0" d="M444.6,236.6l-86.8,1.9l-8.6,10.8c0,0,0.7-3.8,0.1,0.4s-17.4,87.2-14.2,90s-6,22-6.7,23.2s-7.9,59.1,0,63.8
	l3,20.2h13.9c0,0,13.9-16.1,11.1-19s5.2-12.6,5.5-17.8s3.2-28.8,1-32.5s-5.3-18,0.4-23.5s32.5-73.1,32.5-73.1s7.8,79.2,7.8,85.4
	c0,8.1,5.3,4.1,5.3,11.2c0,1.4,17.3,38.3,28.9,49.8l24,18.5l11.1-8.3v-12c0,0-10.3-22.3-13.9-25.9s-16.8-14.6-16.8-19.6
	s-6.2-6.8-2-13.4s2.8-9.5,1.3-12.4s1.3-120.4,1.3-120.4L444.6,236.6z"/>
<circle class="st1" cx="408.4" cy="36.1" r="26.2"/>
<path class="st1" d="M429.4,246.7l7.4-22.2l13.3,2.4l-8.6,23.2c1.6,4-0.5,8.6-4.5,10.1c-4,1.6-8.6-0.5-10.1-4.5
	C425.5,252.5,426.6,248.8,429.4,246.7L429.4,246.7z"/>
<path class="st1" d="M276.2,203.7l18.1-14.9l9.9,9.2l-19.7,15c-0.8,4.3-5,7-9.2,6.2c-4.3-0.8-7-5-6.2-9.2
	C269.9,206.6,272.7,204,276.2,203.7L276.2,203.7z"/>
<path class="st0" d="M377,31.5c2.8,0.9,5.6,1.4,7.4-0.9s1.4-5,4.1-6.1c2.3-0.8,4.8-0.7,7,0.3c0.4,0.1,0.8,0.3,1.2,0.5
	c0.2-0.2,0.4-0.4,0.7-0.5c1.7-1.2,3.9-1.8,6-1.5c-1.5,0.7-2.8,2-3.6,3.5c0.8,0.4,1.5,0.8,2.3,1.1c6.6,2.7,14.1,2.1,20.3-1.5
	c-3,8-0.7,10.8,3.8,18.1l0.2,0.4c-0.4-1.9,5.4-4.1,5.4-1.3c-0.3,2.8-0.9,5.6-1.8,8.3c5.7-8.6,9.1-18.6,6.9-28.3
	c-0.5-2-0.7-4.2-2-5.8c-1.3-1.6-3.7-2.6-5.5-1.7c-0.7-9.6-9-16.8-18.6-16.1c-3.4,0.3-6.7,1.5-9.4,3.6c-2.3,1.8-4.1,4.1-6.2,6.2
	s-4.5,4-7.4,4.5c-1.8,0.3-3.9,0.1-5.4,1.3c-1.7,1.3-1.7,3.7-1.7,6c1.7,0,3.3,0.4,4.7,1.3c-1.7,0-3.4,0.6-4.7,1.7c0,0-0.1,0-0.1,0.1
	C379.8,28.3,380,29.1,377,31.5z"/>
<path class="st2" d="M54.3,460.3c-1.3,0.1-2.3-0.9-2.4-2.2c0-0.7,0.2-1.3,0.7-1.8l0.2-0.6c0,0,0-0.1-0.1-0.1c-1.3-3.1-4.9-4.5-8-3.2
	c-1.5,0.6-2.6,1.8-3.3,3.3c-1.8,4.4-4.2,8.9-4.8,13.5c-0.3,2.1-0.1,4.2,0.3,6.2c-4.3-9.4-6.6-19.7-6.6-30c0-2.6,0.1-5.2,0.4-7.8
	c0.2-2.1,0.6-4.2,1-6.3c2.3-11.3,7.3-22,14.5-31c3.5-1.9,6.3-4.8,8.1-8.4c0.6-1.3,1.1-2.6,1.3-4.1c-0.4,0.1-1.5-5.9-1.2-6.3
	c-0.5-0.8-1.5-1.2-2.1-2.1c-3-4-7.1-3.3-9.2,2.2c-4.6,2.3-4.6,6.1-1.8,9.8c1.8,2.3,2,5.5,3.6,8c-0.2,0.2-0.3,0.4-0.5,0.6
	c-3,3.8-5.5,7.9-7.7,12.2c0.5-4.8-0.1-9.7-1.8-14.2c-1.7-4.2-5-7.8-7.9-11.4c-2.1-2.7-6.1-3.2-8.8-1.1c-1.3,1-2.2,2.5-2.4,4.2
	c0,0.1,0,0.1,0,0.2c0.4,0.2,0.8,0.5,1.3,0.8c1.4,0.9,1.8,2.9,0.8,4.3c-0.5,0.7-1.2,1.2-2.1,1.3l-0.1,0c0.2,1.5,0.4,3.1,0.8,4.6
	c-3.7,14.3,4.3,19.5,15.7,19.8c0.3,0.1,0.5,0.3,0.7,0.4c-2.2,6.1-3.5,12.5-4,19c-0.3,3.8-0.3,7.7,0.1,11.5l0-0.1
	c-0.8-4.3-3.1-8.1-6.4-10.9c-4.9-4.1-11.9-5.6-17.3-8.8c-1.6-1.1-3.8-0.6-4.9,1.1c-0.5,0.7-0.6,1.5-0.5,2.4l0,0.1
	c0.8,0.3,1.6,0.7,2.3,1.1c0.4,0.2,0.8,0.5,1.3,0.8c1.4,0.9,1.8,2.9,0.8,4.3c-0.5,0.7-1.2,1.2-2.1,1.3l-0.1,0c0,0-0.1,0-0.1,0
	c1.4,3.2,3.3,6.2,5.6,8.8c2.3,12.5,12.3,13.7,22.9,10h0c1.2,5.1,2.9,10,5,14.7h18c0.1-0.2,0.1-0.4,0.2-0.6c-1.7,0.1-3.3,0-5-0.3
	c1.3-1.6,2.7-3.3,4-4.9c0,0,0.1-0.1,0.1-0.1c0.7-0.8,1.4-1.7,2-2.5l0,0C55.2,465.4,54.9,462.8,54.3,460.3L54.3,460.3z"/>
<path class="st3" d="M0.7,476.8c0,0.7,0.6,1.2,1.3,1.2c0,0,0,0,0,0h643.1c0.7,0,1.4-0.5,1.4-1.2s-0.6-1.2-1.4-1.2H2
	C1.3,475.6,0.7,476.2,0.7,476.8C0.7,476.8,0.7,476.8,0.7,476.8z"/>
<path class="st4" d="M186.9,155c0.1,2.3,0.2,4.6,0.4,6.8h11.3l-0.2-0.1C194.7,159.3,190.8,157.1,186.9,155z"/>
<path class="st5" d="M93.9,248.5l14.1,0.7l7.8-32.7c17.9-4,22.2-15.1,28.7-13.2c28.6,8.4,62.6,7.5,51.1-4
	c-4.7-4.7-7.1-20.5-8.2-37.4H99.9L93.9,248.5z"/>
<polygon class="st5" points="198.5,161.9 261,205.1 271,195.1 236.7,161.9 "/>
<path class="st6" d="M208.5,134.5l-22-23.5c0-0.2,0-0.4,0-0.4l-0.7-0.3l-6.4-6.8c-3.7-4-8.8-6.2-14.2-6.3c-0.8,0-1.5,0-2.3,0.1
	l-3.4-8.3l-28.4-6l-5.6,11.4l-11,6.4c-2.5,0.9-4.9,2.2-6.9,4l-1.1,0.6l0.1,0.3c-3.6,3.6-5.7,8.5-5.8,13.6l-0.9,42.5l0,0.1h87.4
	c-0.2-2.3-0.3-4.5-0.4-6.8c4,2,7.8,4.3,11.5,6.7l0.2,0.1h38.2L208.5,134.5z"/>
<path class="st5" d="M295,181.9c2.3,4.5-0.9,1.5-4.5,2.3c-3.6,0.8-1.8,2.9-1.8,6s-12.2,9.7-12.2,9.7c7.5,2.7,16.9,13.7,16.9,13.7
	s9.1-9.6,10.7-10.6c1.6-1,2.6-2.5,7.8-4.3c5.2-1.8,3-3.2,3.4-7c0.4-3.8,1.6-1,9-4.5s1.4-2.2,3.4-7c2-4.8,1.4-2.2,8-6.2
	c4-2.4,7.9-5.9,13.4-12h-41.8C299.6,172.5,294.3,180.6,295,181.9z"/>
<path class="st6" d="M471.6,151.8c1.5-12.2-0.4-25.3-2.3-34.3c-1.2-5.9-4.9-11.1-10.1-14.2c-0.2-1-0.5-1.6-1.1-1.8
	c-7.5-2.7-28.3-14.9-28.3-14.9l-1.7-14l-37.7-1.8l-9.6,15.8c0,0-25,2.5-24.5,11.7c-6,7.5-33,41.2-49.1,63.5h41.8
	c3.6-4,8-9.2,13.4-15.9c0,0,0.1-0.1,0.1-0.1c0.4,5.5,0.6,10.9,0.8,16.1h106.9C470.7,158.8,471.2,155.5,471.6,151.8z"/>
<path class="st5" d="M470.3,161.9H363.4c0.5,14.7,0,27.1-2.1,30.5c-3,4.8-8.1,20.8-12.2,34.9c-2.8,9.5,2.7,19.5,12.2,22.3
	c1.8,0.5,3.7,0.8,5.7,0.7c25.6-0.8,63.2-2.8,70.5-7.1c4,0.6,7.9,1.4,11.8,2.6c0,0,2.6-12.9,3.5-14.7c0.9-1.7,0.9-3.5,4.3-7.8
	c3.5-4.3,0.9-4.3-0.9-7.8c-1.7-3.5,0.9-1.7,5.2-8.6c4.3-6.9,0-2.6-0.9-7.8c-0.9-5.2,0-2.6,3.5-9.5
	C466.7,184,468.4,176.5,470.3,161.9z"/>
<path class="st0" d="M112.8,46.5c-3.5-12.9,24.9-23.9,32.4-13.5c1-1.5,4.9-2.4,6.6-1.9c1.7,0.6,3.3,1.5,4.7,2.7c2,1.5,4,3.1,5.3,5.3
	c1.2,2.2,1.4,5.2-0.2,7.1c-1.3,1.5-5.2,2.5-7.1,2.9c-1.4,0.3-2.5,0.5-3.5,0.7c-0.9-1.3-1.3-2.9-1.2-4.5c-1.4,0.9-2.2,2.4-2.4,4
	c0,0.3,11.1,41.3,11.1,41.3c-1.3,0.8-2.7,1.4-4.2,1.9c-2.9-4.4-5.1-9.2-6.6-14.3c-0.3,3.4-0.3,6.8,0.1,10.2c0.2,1.9,0.5,3.8,1,5.6
	c-13.2,2.9-33.1,1.9-41.8-10.2l0-0.2c0-1.1-1-2.1-2.1-2c-0.8,0-1.6,0.5-1.9,1.3c-0.2,0.5-0.4,1-0.6,1.4
	C99.9,75.2,103.2,64.7,112.8,46.5z"/>
<path class="st6" d="M276.9,120.1L276.9,120.1c0,0-0.1,0.1-0.1,0.1c-5.2-5.2-13.6-5.2-18.9-0.1l0,0c-5.3,5.1-5.5,13.6-0.4,18.9l0,0
	l0.1,0.1l0,0l18.6,19.2l19.3-18.8l-0.1-0.1c0,0,0.1-0.1,0.1-0.1l0,0c5.3-5.2,5.5-13.7,0.3-19.1l0,0l0,0
	C290.8,115.1,282.3,114.9,276.9,120.1z"/>
<path class="st7" d="M479.5,381.3c0-0.1,0-0.3,0-0.4c0-13.1,10.7-23.8,23.8-23.8h22.1c0,0,0,0,0,0c2.1,0,3.8-1.7,3.8-3.8
	c0-1.9,0.7-3.7,2-5.1c1.3-1.4,3-2.2,4.9-2.3c0.1,0,0.1,0,0.2,0c3.9,0,7.1,3.2,7.1,7.1v36.5c0,1.4,0.2,2.9,0.7,4.2
	c1.8,5.3,6.8,8.9,12.5,8.9h46.9c1.5,0,3.1,0.1,4.6,0.3c4.6,0.5,9-1.9,10.9-6.1c1-2,1.7-4.1,2.3-6.3c1-3.8,1.3-7.8,0.9-11.7
	c-1.2-11.8,13.1-18.5,21.3-9.9c0.1,0.1,0.2,0.2,0.3,0.4c1.8,2,2.6,4.5,2.7,7.4c0.3,9.9-8.1,24-13.8,32.3c-1.7,2.5-1.6,5.7,0.2,8.1
	c5.1,6.5,7.9,14.6,7.9,22.9v24.3c0,0.5,0,1-0.1,1.6c-0.7,5.4-5.2,9.9-10.8,10c-0.1,0-0.2,0-0.3,0c-6.2,0-11.1-5-11.1-11.2v-5.3
	l-1,0.1v4.8c0,6.1-4.8,11.4-10.9,11.5c-0.1,0-0.1,0-0.2,0c-6.2,0-11.2-5-11.2-11.2v-3.4l-1.3,0.1c-4.8,1.2-22,1.2-25.1,0v3
	c0,6.1-4.8,11.4-10.9,11.5c-0.1,0-0.1,0-0.2,0c-6.2,0-11.2-5-11.2-11.2v-5.8l-3-0.4v5.8c0,6.1-4.8,11.4-10.9,11.5
	c-0.1,0-0.1,0-0.2,0c-6.2,0-11.2-5-11.2-11.2l0,0c-0.1-6.4-2-12.5-5.5-17.9c-2.4-3.7-3.7-8.1-3.7-12.6V411c0-0.5-0.1-1-0.2-1.4
	c-0.3-1.2-0.9-2.2-1.8-3.1c-1.2-1.1-2.7-1.8-4.3-1.7h-1.8C490.8,404.8,479.7,394.4,479.5,381.3L479.5,381.3z"/>
<path class="st8" d="M640.6,465.8c-0.7,5.4-5.2,9.9-10.8,10c-5.2,0.1-9.7-3.4-11-8.4C624.5,462.7,633.9,464,640.6,465.8z"/>
<path class="st8" d="M617.3,465.8c-0.7,5.4-5.2,9.9-10.8,10c-5.2,0.1-9.7-3.4-11-8.4C601.2,462.7,610.6,464,617.3,465.8z"/>
<path class="st8" d="M568.7,465.8c-0.7,5.4-5.2,9.9-10.8,10c-5.2,0.1-9.7-3.4-11-8.4C552.6,462.7,561.9,464,568.7,465.8z"/>
<path class="st8" d="M543.3,465.8c-0.7,5.4-5.2,9.9-10.8,10c-5.2,0.1-9.7-3.4-11-8.4C527.2,462.7,536.6,464,543.3,465.8z"/>
<path class="st8" d="M622.1,378.9c-1.2-11.8,13.1-18.5,21.3-9.9c0.1,0.1,0.2,0.2,0.3,0.4c1.8,2,2.6,4.5,2.7,7.4
	c-7.7,5-17.3,10.8-25.2,14C622.3,386.8,622.5,382.8,622.1,378.9z"/>
<path class="st8" d="M554.6,402.8c35.5,27.4,57.2,0.1,57.2,0.1"/>
<path class="st8" d="M543.4,390.6c-13.2-21.3,0-38.5,0-38.5"/>
<path class="st8" d="M512.1,436.8c11.5-11.5-0.1-25.9-0.1-25.9"/>
<path class="st9" d="M544.1,394.9c0.8,2.5,3.3,4.3,5.4,5.9l-37.7,9.9c-0.3-1.2,0-2-0.8-2.8C530.7,404.2,539.6,398.4,544.1,394.9z"/>
<path class="st10" d="M544.1,393.8c0.8,2.5,2.4,4.6,4.4,6.2l-36.7,9.6c-0.3-1.2-0.9-2.2-1.8-3.1
	C529.8,402.9,539.6,397.3,544.1,393.8z"/>
<path class="st9" d="M512,407.2c19.2-2.7,30.7-11.3,30.7-11.3"/>
<path class="st7" d="M512,406.2c19.2-2.7,30.7-11.3,30.7-11.3"/>
<path class="st9" d="M489.7,382.5c5.1,19.3,24.3,13.2,24.3,13.2L489.7,382.5z"/>
<path class="st8" d="M489.7,381.5c5.1,19.3,24.3,13.2,24.3,13.2L489.7,381.5z"/>
<ellipse class="st10" cx="479.6" cy="378.9" rx="2" ry="3.5"/>
<path class="st9" d="M633.1,451.9c8.1-13.2-4.1-32.4-4.1-32.4L633.1,451.9"/>
<path class="st8" d="M632.1,451.9c8.1-13.2-4.1-32.4-4.1-32.4L632.1,451.9z"/>
</svg>
